<svg width="164" height="59" viewBox="0 0 164 59" fill="none" xmlns="http://www.w3.org/2000/svg">
<path fill-rule="evenodd" clip-rule="evenodd" d="M77.3131 23.3668H74.17V35.6192H77.3131C81.2212 35.6192 83.3352 33.5378 83.3352 29.4999C83.3212 25.4482 81.2212 23.3668 77.3131 23.3668ZM77.2992 19.662C84.3087 19.662 87.6187 23.797 87.6187 29.4999C87.6187 35.2029 84.2948 39.3379 77.2992 39.3379H69.9281V19.662H77.2992Z" fill="#2C3144"/>
<path fill-rule="evenodd" clip-rule="evenodd" d="M97.2012 19.662C99.4403 19.662 101.721 20.2031 103.335 21.1189V24.907C101.735 23.7692 99.6072 23.2003 97.4932 23.2281C95.4349 23.2558 94.4057 23.8247 94.4057 24.9903C94.4057 28.265 104.767 27.0439 104.767 33.7737C104.767 38.0197 101.36 39.3379 97.382 39.3379C94.7534 39.3379 92.3196 38.7135 90.3725 37.6312V33.7737C92.5421 35.2029 94.9203 35.7718 97.076 35.7718C99.2595 35.7718 100.622 35.3139 100.622 33.968C100.622 30.4296 90.2612 31.7478 90.2612 25.0597C90.289 21.3965 93.4739 19.662 97.2012 19.662Z" fill="#2C3144"/>
<path fill-rule="evenodd" clip-rule="evenodd" d="M121.832 19.662V23.3668H112.18V27.5573H120.983V31.2344H112.18V35.6192H121.999V39.324H107.966V19.662H121.832Z" fill="#2C3144"/>
<path fill-rule="evenodd" clip-rule="evenodd" d="M125.406 39.324V19.662H129.37L138.535 32.4971C138.479 31.6785 138.451 30.6933 138.451 29.8052V19.662H142.666V39.324H138.702L129.537 26.4889C129.592 27.3076 129.62 28.2928 129.62 29.1808V39.324H125.406Z" fill="#2C3144"/>
<path fill-rule="evenodd" clip-rule="evenodd" d="M57.439 23.2975C57.4668 22.9367 57.3834 22.562 57.1886 22.2429L55.7144 19.7036H54.1985L56.0482 22.8951C56.1178 23.0199 56.1456 23.1587 56.1177 23.2975H57.439Z" fill="#2C3144"/>
<path fill-rule="evenodd" clip-rule="evenodd" d="M67.1187 30.388L62.4596 38.436C62.1397 38.991 61.5556 39.324 60.9159 39.324H51.6116C50.9718 39.324 50.3877 38.9771 50.0678 38.436L47.3002 33.6488L46.5353 32.3306L45.4087 30.388C45.0889 29.833 45.0889 29.1531 45.4087 28.598L50.0678 20.55C50.3877 19.995 50.9718 19.662 51.6116 19.662H54.2123L56.0621 22.8673C56.1316 22.9922 56.1594 23.1309 56.1316 23.2697H52.6686L49.0665 29.4999L50.6937 32.3306L51.3612 33.4962L52.6547 35.7441H59.8589L63.461 29.5138L59.8589 23.2836H57.4528C57.4806 22.9228 57.3972 22.5482 57.2025 22.229L55.7283 19.6759H60.9159C61.5556 19.6759 62.1397 20.0089 62.4596 20.5639L67.1187 28.6119C67.4386 29.1531 67.4386 29.833 67.1187 30.388Z" fill="#2C3144"/>
<path fill-rule="evenodd" clip-rule="evenodd" d="M46.5631 32.3306H42.6133V33.6488H47.328L46.5631 32.3306Z" fill="#F17900"/>
<path fill-rule="evenodd" clip-rule="evenodd" d="M57.4668 23.2697C57.4528 23.5611 57.3694 23.8386 57.2303 24.1023L52.2653 32.6914C52.0567 33.0383 51.7507 33.3158 51.3891 33.4823L50.7215 32.3167C50.8884 32.289 51.0414 32.1919 51.1248 32.0392L56.076 23.4501C56.1177 23.3946 56.1316 23.3252 56.1455 23.2697C56.1733 23.1309 56.1594 22.9783 56.076 22.8534L54.2263 19.662L51.1248 14.2782C51.0136 14.0978 50.8189 13.9868 50.6102 13.9868H40.6801C40.4715 13.9868 40.2768 14.0978 40.1794 14.2782L35.2144 22.8534C35.1031 23.0477 35.1031 23.2697 35.2144 23.4501L35.6872 24.2549L35.7012 24.2826L37.8569 28.0291L37.8847 28.0707L38.3993 28.9588V31.5952L37.0641 29.2918L37.0502 29.2641L34.8806 25.5315L34.8667 25.4898L34.0739 24.1023C33.7402 23.5195 33.7402 22.7979 34.0739 22.2013L39.039 13.6121C39.3728 13.0294 39.9986 12.6686 40.6801 12.6686H50.6102C51.2917 12.6686 51.9176 13.0294 52.2653 13.6121L55.7561 19.662L57.2303 22.2013C57.4111 22.5343 57.4946 22.8951 57.4668 23.2697Z" fill="#F17900"/>
<path d="M38.747 19.662L35.7012 24.2826L37.8569 28.0291L37.8847 28.0707L38.4271 27.2382V39.324H42.655V19.662H38.747ZM37.0502 29.2641L34.8806 25.5315L32.0156 29.8885L25.2565 19.662H21.3345V39.324H25.5624V27.2104L30.7639 35.1058H33.2256L37.0641 29.2918L37.0502 29.2641Z" fill="#2C3144"/>
</svg>
